<svg width="15" height="15" viewBox="0 0 15 15" fill="none" xmlns="http://www.w3.org/2000/svg">
<g clip-path="url(#clip0_7_5)">
<path d="M14.2969 7.5H2.34375V3.28125C2.34375 2.76431 2.76431 2.34375 3.28125 2.34375C3.6138 2.34375 3.90621 2.51792 4.07271 2.77969C3.58954 3.51817 3.64242 4.52508 4.27304 5.21235C4.15069 5.35043 4.15523 5.56146 4.28742 5.69364L4.61889 6.02511C4.75617 6.16239 4.97877 6.16239 5.11608 6.02511L7.90017 3.24105C8.03745 3.10377 8.03745 2.88117 7.90017 2.74386L7.5687 2.41239C7.43651 2.28021 7.22549 2.27569 7.08741 2.39801C6.56156 1.91552 5.84833 1.77021 5.2072 1.94786C4.78362 1.3379 4.07848 0.9375 3.28125 0.9375C1.98891 0.9375 0.9375 1.98891 0.9375 3.28125V7.5H0.703125C0.314795 7.5 0 7.8148 0 8.20312V8.67188C0 9.06021 0.314795 9.375 0.703125 9.375H0.9375V10.3125C0.9375 11.1454 1.29967 11.8936 1.875 12.4086V13.3594C1.875 13.7477 2.1898 14.0625 2.57812 14.0625H3.04688C3.4352 14.0625 3.75 13.7477 3.75 13.3594V13.125H11.25V13.3594C11.25 13.7477 11.5648 14.0625 11.9531 14.0625H12.4219C12.8102 14.0625 13.125 13.7477 13.125 13.3594V12.4086C13.7003 11.8936 14.0625 11.1454 14.0625 10.3125V9.375H14.2969C14.6852 9.375 15 9.06021 15 8.67188V8.20312C15 7.8148 14.6852 7.5 14.2969 7.5Z" fill="#5A5A5A"/>
</g>
<defs>
<clipPath id="clip0_7_5">
<rect width="15" height="15" fill="white"/>
</clipPath>
</defs>
</svg>
