<svg width="15" height="15" viewBox="0 0 15 15" fill="none" xmlns="http://www.w3.org/2000/svg">
<path d="M3.75 6.75V8.25H11.25V6.75C11.25 5.92266 11.9227 5.25 12.75 5.25H13.5C13.5 4.00781 12.4922 3 11.25 3H3.75C2.50781 3 1.5 4.00781 1.5 5.25H2.25C3.07734 5.25 3.75 5.92266 3.75 6.75ZM13.5 6H12.75C12.3352 6 12 6.33516 12 6.75V9H3V6.75C3 6.33516 2.66484 6 2.25 6H1.5C0.672656 6 0 6.67266 0 7.5C0 8.05312 0.304688 8.53125 0.75 8.79141V11.625C0.75 11.8313 0.91875 12 1.125 12H2.625C2.83125 12 3 11.8313 3 11.625V11.25H12V11.625C12 11.8313 12.1687 12 12.375 12H13.875C14.0813 12 14.25 11.8313 14.25 11.625V8.79141C14.6953 8.53125 15 8.05312 15 7.5C15 6.67266 14.3273 6 13.5 6Z" fill="#5A5A5A"/>
</svg>
